<svg xmlns="http://www.w3.org/2000/svg" width="11.446" height="11" viewBox="0 0 11.446 11">
  <g id="team-svgrepo-com" transform="translate(-0.109 -0.402)">
    <g id="_24x24_user--dark" data-name="24x24/user--dark" transform="translate(0.201 0.201)">
      <rect id="Rectangle" width="11" height="11" transform="translate(0.201 0.201)" fill="none"/>
    </g>
    <path id="Combined_Shape" data-name="Combined Shape" d="M0,5.858c0-1.831,2.178-1.464,2.178-2.2a1.083,1.083,0,0,0-.2-.732,1.694,1.694,0,0,1-.527-1.284A1.559,1.559,0,0,1,2.9,0,1.559,1.559,0,0,1,4.355,1.645a1.665,1.665,0,0,1-.535,1.284,1.129,1.129,0,0,0-.191.733c0,.732,2.178.366,2.178,2.2,0,0-.578.433-2.9.433S0,5.858,0,5.858Z" transform="translate(2.928 3.896)" fill="none" stroke="#306db8" stroke-width="0.8"/>
    <path id="Combined_Shape-2" data-name="Combined Shape" d="M2.171,6.275c-.275-.013-.518-.031-.732-.055A3.308,3.308,0,0,1,0,5.858c0-1.831,2.178-1.464,2.178-2.2a1.083,1.083,0,0,0-.2-.732,1.694,1.694,0,0,1-.527-1.284A1.559,1.559,0,0,1,2.9,0,1.559,1.559,0,0,1,4.355,1.645" transform="translate(0.509 1.476)" fill="none" stroke="#306db8" stroke-width="0.8"/>
    <path id="Combined_Shape-3" data-name="Combined Shape" d="M-6.818,6.275c.275-.013.518-.031.732-.055a3.308,3.308,0,0,0,1.439-.361c0-1.831-2.178-1.464-2.178-2.2a1.083,1.083,0,0,1,.2-.732A1.694,1.694,0,0,0-6.1,1.645,1.559,1.559,0,0,0-7.551,0,1.559,1.559,0,0,0-9,1.645" transform="translate(15.802 1.476)" fill="none" stroke="#306db8" stroke-width="0.8"/>
  </g>
</svg>
