<svg id="页面-1" xmlns="http://www.w3.org/2000/svg" width="12" height="12" viewBox="0 0 12 12">
  <g id="System">
    <g id="time_line">
      <path id="MingCute" d="M12,0V12H0V0ZM6.3,11.629H6.291l-.036.018-.01,0h0l-.008,0L6.2,11.63a.011.011,0,0,0-.012,0l0,.005-.009.214,0,.01.005.006.052.037.007,0h0l.006,0,.052-.037.006-.008h0l0-.008L6.3,11.638a.011.011,0,0,0-.008-.009Zm.132-.056H6.422l-.092.046,0,.005h0v.006l.009.215,0,.006h0l0,0,.1.046a.013.013,0,0,0,.014,0l0-.007-.017-.307a.013.013,0,0,0-.01-.011Zm-.358,0a.011.011,0,0,0-.014,0l0,.007-.017.307a.011.011,0,0,0,.008.012h.008l.1-.046,0,0h0l0-.006.009-.215,0-.006h0l0,0Z" fill="none"/>
      <path id="形状" d="M7,2A5,5,0,1,1,2,7,5,5,0,0,1,7,2ZM7,3a4,4,0,1,0,4,4A4,4,0,0,0,7,3ZM7,4a.5.5,0,0,1,.5.442l0,.058V6.793L8.854,8.146a.5.5,0,0,1-.66.749l-.047-.042-1.5-1.5A.5.5,0,0,1,6.5,7.066L6.5,7V4.5A.5.5,0,0,1,7,4Z" transform="translate(-1 -1)" fill="#306db8"/>
    </g>
  </g>
</svg>
