<svg xmlns="http://www.w3.org/2000/svg" width="12.402" height="11.747" viewBox="0 0 12.402 11.747">
  <g id="ticket-svgrepo-com" transform="matrix(0.788, -0.616, 0.616, 0.788, -56.978, -66.464)">
    <g id="Group_3293" data-name="Group 3293" transform="translate(0 92.547)">
      <g id="Group_3292" data-name="Group 3292">
        <path id="Path_11486" data-name="Path 11486" d="M10.1,94.962a.415.415,0,0,0,.4-.414V92.962a.415.415,0,0,0-.415-.415H.415A.415.415,0,0,0,0,92.962v1.585a.415.415,0,0,0,.415.415.938.938,0,0,1,0,1.876A.415.415,0,0,0,0,97.252v1.585a.415.415,0,0,0,.415.415h9.671a.415.415,0,0,0,.415-.415V97.25a.415.415,0,0,0-.4-.414.938.938,0,0,1,0-1.874Zm-6.761,3.46H.829v-.8a1.767,1.767,0,0,0,0-3.436v-.8H3.338ZM8.86,97.13a1.759,1.759,0,0,0,.81.476v.816h-5.5V93.376h5.5v.816a1.767,1.767,0,0,0-.81,2.938Z" transform="translate(0 -92.547)" fill="#306db8"/>
        <path id="Path_11487" data-name="Path 11487" d="M228.981,198.673H226.4a.415.415,0,1,0,0,.829h2.585a.415.415,0,1,0,0-.829Z" transform="translate(-221.348 -196.497)" fill="#306db8"/>
        <path id="Path_11488" data-name="Path 11488" d="M228.981,272.895H226.4a.415.415,0,0,0,0,.829h2.585a.415.415,0,0,0,0-.829Z" transform="translate(-221.348 -269.196)" fill="#306db8"/>
      </g>
    </g>
  </g>
</svg>
