<svg xmlns="http://www.w3.org/2000/svg" width="24" height="24" viewBox="0 0 24 24">
  <g id="Group_3298" data-name="Group 3298" transform="translate(-112 -112)">
    <circle id="Ellipse_95" data-name="Ellipse 95" cx="12" cy="12" r="12" transform="translate(112 112)" fill="rgba(5,197,166,0.4)"/>
    <g id="ticket-svgrepo-com" transform="matrix(0.788, -0.616, 0.616, 0.788, 116.542, 124.941)">
      <g id="Group_3293" data-name="Group 3293" transform="translate(0 0)">
        <g id="Group_3292" data-name="Group 3292">
          <path id="Path_11486" data-name="Path 11486" d="M12.307,2.943a.505.505,0,0,0,.49-.505V.505A.505.505,0,0,0,12.292,0H.505A.505.505,0,0,0,0,.505V2.437a.505.505,0,0,0,.505.505,1.143,1.143,0,0,1,0,2.286A.505.505,0,0,0,0,5.734V7.666a.505.505,0,0,0,.505.505H12.292a.505.505,0,0,0,.505-.505V5.733a.505.505,0,0,0-.49-.505,1.143,1.143,0,0,1,0-2.284ZM4.068,7.16H1.011V6.179a2.154,2.154,0,0,0,0-4.188V1.011H4.068ZM10.8,5.586a2.144,2.144,0,0,0,.988.58V7.16H5.078V1.011h6.708V2A2.154,2.154,0,0,0,10.8,5.586Z" fill="#fff"/>
          <path id="Path_11487" data-name="Path 11487" d="M3.656,0H.505a.505.505,0,0,0,0,1.011h3.15A.505.505,0,0,0,3.656,0Z" transform="translate(5.648 2.653)" fill="#fff"/>
          <path id="Path_11488" data-name="Path 11488" d="M3.656,0H.505a.505.505,0,0,0,0,1.011h3.15A.505.505,0,0,0,3.656,0Z" transform="translate(5.648 4.508)" fill="#fff"/>
        </g>
      </g>
    </g>
  </g>
</svg>
