<svg xmlns="http://www.w3.org/2000/svg" width="789" height="217" viewBox="0 0 789 217">
  <g id="Group_3320" data-name="Group 3320" transform="translate(-82 -700)">
    <rect id="Rectangle_405" data-name="Rectangle 405" width="789" height="217" rx="20" transform="translate(82 700)" fill="#fff"/>
    <text id="Teams_Progress" data-name="Teams Progress" transform="translate(106 747)" fill="#0b2e59" font-size="20" font-family="SofiaProBlack, Sofia Pro"><tspan x="0" y="0">Teams Progress</tspan></text>
    <g id="Group_3313" data-name="Group 3313" transform="translate(-4 251)">
      <text id="Tickets" transform="translate(737 496)" fill="#0cb18b" font-size="14" font-family="SofiaProBold, Sofia Pro"><tspan x="0" y="0">Tickets</tspan></text>
      <text id="Hours" transform="translate(795 496)" fill="#9a9a9a" font-size="14" font-family="SofiaProBold, Sofia Pro"><tspan x="0" y="0">Hours</tspan></text>
    </g>
    <path id="Path_11503" data-name="Path 11503" d="M2173.954,500h28.252" transform="translate(-1438 253)" fill="none" stroke="#0cb18b" stroke-linecap="round" stroke-width="2"/>
    <g id="Group_3318" data-name="Group 3318">
      <g id="Group_3315" data-name="Group 3315" transform="translate(0 249)">
        <text id="team1" transform="translate(147 649)" fill="#c9c9c9" font-size="12" font-family="SofiaProMedium, Sofia Pro"><tspan x="0" y="0">team1</tspan></text>
        <text id="team8" transform="translate(549 649)" fill="#c9c9c9" font-size="12" font-family="SofiaProMedium, Sofia Pro"><tspan x="0" y="0">team8</tspan></text>
        <text id="team9" transform="translate(607 649)" fill="#c9c9c9" font-size="12" font-family="SofiaProMedium, Sofia Pro"><tspan x="0" y="0">team9</tspan></text>
        <text id="team10" transform="translate(665 649)" fill="#c9c9c9" font-size="12" font-family="SofiaProMedium, Sofia Pro"><tspan x="0" y="0">team10</tspan></text>
        <text id="team11" transform="translate(727 649)" fill="#c9c9c9" font-size="12" font-family="SofiaProMedium, Sofia Pro"><tspan x="0" y="0">team11</tspan></text>
        <text id="team12" transform="translate(787 649)" fill="#c9c9c9" font-size="12" font-family="SofiaProMedium, Sofia Pro"><tspan x="0" y="0">team12</tspan></text>
        <text id="team7" transform="translate(491 649)" fill="#c9c9c9" font-size="12" font-family="SofiaProMedium, Sofia Pro"><tspan x="0" y="0">team7</tspan></text>
        <text id="team6" transform="translate(434 649)" fill="#c9c9c9" font-size="12" font-family="SofiaProMedium, Sofia Pro"><tspan x="0" y="0">team6</tspan></text>
        <text id="team5" transform="translate(376 649)" fill="#c9c9c9" font-size="12" font-family="SofiaProMedium, Sofia Pro"><tspan x="0" y="0">team5</tspan></text>
        <text id="team4" transform="translate(318 649)" fill="#c9c9c9" font-size="12" font-family="SofiaProMedium, Sofia Pro"><tspan x="0" y="0">team4</tspan></text>
        <text id="team3" transform="translate(260 649)" fill="#c9c9c9" font-size="12" font-family="SofiaProMedium, Sofia Pro"><tspan x="0" y="0">team3</tspan></text>
        <text id="team2" transform="translate(203 649)" fill="#c9c9c9" font-size="12" font-family="SofiaProMedium, Sofia Pro"><tspan x="0" y="0">team2</tspan></text>
      </g>
      <text id="_10" data-name="10" transform="translate(106 873)" fill="#c9c9c9" font-size="12" font-family="SofiaProMedium, Sofia Pro"><tspan x="0" y="0">10</tspan></text>
      <text id="_20" data-name="20" transform="translate(106 855)" fill="#c9c9c9" font-size="12" font-family="SofiaProMedium, Sofia Pro"><tspan x="0" y="0">20</tspan></text>
      <text id="_30" data-name="30" transform="translate(106 837)" fill="#c9c9c9" font-size="12" font-family="SofiaProMedium, Sofia Pro"><tspan x="0" y="0">30</tspan></text>
      <text id="_40" data-name="40" transform="translate(106 817)" fill="#c9c9c9" font-size="12" font-family="SofiaProMedium, Sofia Pro"><tspan x="0" y="0">40</tspan></text>
      <text id="_50" data-name="50" transform="translate(106 799)" fill="#c9c9c9" font-size="12" font-family="SofiaProMedium, Sofia Pro"><tspan x="0" y="0">50</tspan></text>
      <text id="_60" data-name="60" transform="translate(106 779)" fill="#c9c9c9" font-size="12" font-family="SofiaProMedium, Sofia Pro"><tspan x="0" y="0">60</tspan></text>
      <path id="Rectangle_426" data-name="Rectangle 426" d="M4,0H7.41a4,4,0,0,1,4,4V5a0,0,0,0,1,0,0H0A0,0,0,0,1,0,5V4A4,4,0,0,1,4,0Z" transform="translate(673.149 868.053)" fill="#f76161"/>
      <g id="Group_3316" data-name="Group 3316">
        <g id="Group_3314" data-name="Group 3314" transform="translate(0 229)">
          <path id="Path_11493" data-name="Path 11493" d="M1582,524h682.877" transform="translate(-1436 40)" fill="none" stroke="#dedede" stroke-width="1"/>
          <path id="Path_11504" data-name="Path 11504" d="M1582,524h682.877" transform="translate(-1436 20)" fill="none" stroke="#dedede" stroke-width="1"/>
          <path id="Path_11494" data-name="Path 11494" d="M1582,524h682.877" transform="translate(-1436 60)" fill="none" stroke="#dedede" stroke-width="1"/>
          <path id="Path_11495" data-name="Path 11495" d="M1582,524h682.877" transform="translate(-1436 80)" fill="none" stroke="#dedede" stroke-width="1"/>
          <path id="Path_11496" data-name="Path 11496" d="M1582,524h682.877" transform="translate(-1436 100)" fill="none" stroke="#dedede" stroke-width="1"/>
          <path id="Path_11497" data-name="Path 11497" d="M1582,524h682.877" transform="translate(-1436 120)" fill="none" stroke="#dedede" stroke-width="1"/>
        </g>
        <path id="Rectangle_422" data-name="Rectangle 422" d="M4,0H7.41a4,4,0,0,1,4,4V69.05a0,0,0,0,1,0,0H0a0,0,0,0,1,0,0V4A4,4,0,0,1,4,0Z" transform="translate(156.584 804)" fill="#4791ff"/>
        <path id="Rectangle_423" data-name="Rectangle 423" d="M4,0H7.41a4,4,0,0,1,4,4V27.984a0,0,0,0,1,0,0H0a0,0,0,0,1,0,0V4A4,4,0,0,1,4,0Z" transform="translate(213.98 844.008)" fill="#d8ad02"/>
        <path id="Rectangle_424" data-name="Rectangle 424" d="M4,0H7.41a4,4,0,0,1,4,4V96.05a0,0,0,0,1,0,0H0a0,0,0,0,1,0,0V4A4,4,0,0,1,4,0Z" transform="translate(271.376 777)" fill="#0cb18b"/>
        <path id="Rectangle_425" data-name="Rectangle 425" d="M4,0H7.41a4,4,0,0,1,4,4V74.223a0,0,0,0,1,0,0H0a0,0,0,0,1,0,0V4A4,4,0,0,1,4,0Z" transform="translate(328.772 798.826)" fill="#4791ff"/>
        <path id="Rectangle_427" data-name="Rectangle 427" d="M4,0H7.41a4,4,0,0,1,4,4V49.05a0,0,0,0,1,0,0H0a0,0,0,0,1,0,0V4A4,4,0,0,1,4,0Z" transform="translate(386.168 824)" fill="#d8ad02"/>
        <path id="Rectangle_428" data-name="Rectangle 428" d="M4,0H7.41a4,4,0,0,1,4,4v9.992a0,0,0,0,1,0,0H0a0,0,0,0,1,0,0V4A4,4,0,0,1,4,0Z" transform="translate(443.564 859.057)" fill="#f76161"/>
        <path id="Rectangle_429" data-name="Rectangle 429" d="M4,0H7.41a4,4,0,0,1,4,4V24.525a0,0,0,0,1,0,0H0a0,0,0,0,1,0,0V4A4,4,0,0,1,4,0Z" transform="translate(500.961 848.525)" fill="#f76161"/>
        <path id="Rectangle_430" data-name="Rectangle 430" d="M4,0H7.41a4,4,0,0,1,4,4V40.05a0,0,0,0,1,0,0H0a0,0,0,0,1,0,0V4A4,4,0,0,1,4,0Z" transform="translate(558.357 833)" fill="#d8ad02"/>
        <path id="Rectangle_431" data-name="Rectangle 431" d="M4,0H7.41a4,4,0,0,1,4,4v96.05a0,0,0,0,1,0,0H0a0,0,0,0,1,0,0V4A4,4,0,0,1,4,0Z" transform="translate(615.753 773)" fill="#0cb18b"/>
        <path id="Rectangle_432" data-name="Rectangle 432" d="M4,0H7.41a4,4,0,0,1,4,4V32.275a0,0,0,0,1,0,0H0a0,0,0,0,1,0,0V4A4,4,0,0,1,4,0Z" transform="translate(737.954 840.775)" fill="#d8ad02"/>
        <path id="Rectangle_433" data-name="Rectangle 433" d="M4,0H7.41a4,4,0,0,1,4,4V87.05a0,0,0,0,1,0,0H0a0,0,0,0,1,0,0V4A4,4,0,0,1,4,0Z" transform="translate(800.954 786)" fill="#0cb18b"/>
      </g>
    </g>
  </g>
</svg>
