<svg xmlns="http://www.w3.org/2000/svg" xmlns:xlink="http://www.w3.org/1999/xlink" width="789" height="217" viewBox="0 0 789 217">
  <defs>
    <clipPath id="clip-path">
      <rect id="Rectangle_380" data-name="Rectangle 380" width="683" height="85" fill="#434c78"/>
    </clipPath>
    <linearGradient id="linear-gradient" x1="0.461" y1="0.21" x2="0.464" y2="1.105" gradientUnits="objectBoundingBox">
      <stop offset="0" stop-color="#0cb18b" stop-opacity="0.6"/>
      <stop offset="1" stop-color="#fff" stop-opacity="0"/>
    </linearGradient>
    <filter id="Path_11473" x="56.725" y="81.356" width="693.664" height="72.541" filterUnits="userSpaceOnUse">
      <feOffset dy="3" input="SourceAlpha"/>
      <feGaussianBlur stdDeviation="3" result="blur"/>
      <feFlood flood-color="#f76161" flood-opacity="0.341"/>
      <feComposite operator="in" in2="blur"/>
      <feComposite in="SourceGraphic"/>
    </filter>
  </defs>
  <g id="Group_3319" data-name="Group 3319" transform="translate(-82 -451)">
    <rect id="Rectangle_404" data-name="Rectangle 404" width="789" height="217" rx="20" transform="translate(82 451)" fill="#fff"/>
    <text id="Success_Rate" data-name="Success Rate" transform="translate(106 498)" fill="#0b2e59" font-size="20" font-family="SofiaProBlack, Sofia Pro"><tspan x="0" y="0">Success Rate</tspan></text>
    <g id="Group_3311" data-name="Group 3311" transform="translate(4)">
      <text id="Week" transform="translate(686 496)" fill="#9a9a9a" font-size="14" font-family="SofiaProBold, Sofia Pro"><tspan x="0" y="0">Week</tspan></text>
      <text id="Month" transform="translate(737 496)" fill="#0cb18b" font-size="14" font-family="SofiaProBold, Sofia Pro"><tspan x="0" y="0">Month</tspan></text>
      <text id="Year" transform="translate(795 496)" fill="#9a9a9a" font-size="14" font-family="SofiaProBold, Sofia Pro"><tspan x="0" y="0">Year</tspan></text>
    </g>
    <g id="Group_3317" data-name="Group 3317">
      <g id="Group_3310" data-name="Group 3310" transform="translate(0 -24)">
        <path id="Path_11493" data-name="Path 11493" d="M1582,524h682.877" transform="translate(-1436 40)" fill="none" stroke="#dedede" stroke-width="1"/>
        <path id="Path_11494" data-name="Path 11494" d="M1582,524h682.877" transform="translate(-1436 60)" fill="none" stroke="#dedede" stroke-width="1"/>
        <path id="Path_11495" data-name="Path 11495" d="M1582,524h682.877" transform="translate(-1436 80)" fill="none" stroke="#dedede" stroke-width="1"/>
        <path id="Path_11496" data-name="Path 11496" d="M1582,524h682.877" transform="translate(-1436 100)" fill="none" stroke="#dedede" stroke-width="1"/>
        <path id="Path_11497" data-name="Path 11497" d="M1582,524h682.877" transform="translate(-1436 120)" fill="none" stroke="#dedede" stroke-width="1"/>
      </g>
      <g id="Group_3309" data-name="Group 3309" transform="translate(0 -4)">
        <text id="Jan" transform="translate(147 649)" fill="#c9c9c9" font-size="12" font-family="SofiaProMedium, Sofia Pro"><tspan x="0" y="0">Jan</tspan></text>
        <text id="Aug" transform="translate(564 649)" fill="#c9c9c9" font-size="12" font-family="SofiaProMedium, Sofia Pro"><tspan x="0" y="0">Aug</tspan></text>
        <text id="Sep" transform="translate(626 649)" fill="#c9c9c9" font-size="12" font-family="SofiaProMedium, Sofia Pro"><tspan x="0" y="0">Sep</tspan></text>
        <text id="Oct" transform="translate(687 649)" fill="#c9c9c9" font-size="12" font-family="SofiaProMedium, Sofia Pro"><tspan x="0" y="0">Oct</tspan></text>
        <text id="Nov" transform="translate(747 649)" fill="#c9c9c9" font-size="12" font-family="SofiaProMedium, Sofia Pro"><tspan x="0" y="0">Nov</tspan></text>
        <text id="Dec" transform="translate(808 649)" fill="#c9c9c9" font-size="12" font-family="SofiaProMedium, Sofia Pro"><tspan x="0" y="0">Dec</tspan></text>
        <text id="Jul" transform="translate(511 649)" fill="#c9c9c9" font-size="12" font-family="SofiaProMedium, Sofia Pro"><tspan x="0" y="0">Jul</tspan></text>
        <text id="Jun" transform="translate(452 649)" fill="#c9c9c9" font-size="12" font-family="SofiaProMedium, Sofia Pro"><tspan x="0" y="0">Jun</tspan></text>
        <text id="May" transform="translate(387 649)" fill="#c9c9c9" font-size="12" font-family="SofiaProMedium, Sofia Pro"><tspan x="0" y="0">May</tspan></text>
        <text id="Apr" transform="translate(327 649)" fill="#c9c9c9" font-size="12" font-family="SofiaProMedium, Sofia Pro"><tspan x="0" y="0">Apr</tspan></text>
        <text id="Mar" transform="translate(264 649)" fill="#c9c9c9" font-size="12" font-family="SofiaProMedium, Sofia Pro"><tspan x="0" y="0">Mar</tspan></text>
        <text id="Feb" transform="translate(204 649)" fill="#c9c9c9" font-size="12" font-family="SofiaProMedium, Sofia Pro"><tspan x="0" y="0">Feb</tspan></text>
      </g>
      <g id="Group_3308" data-name="Group 3308" transform="translate(146 534.154)">
        <g id="Mask_Group_4" data-name="Mask Group 4" transform="translate(0 0.846)" clip-path="url(#clip-path)">
          <g id="Group_553" data-name="Group 553" transform="translate(-2.489 4.084)">
            <path id="Path_11477" data-name="Path 11477" d="M1655.681,760.676V698.154s-30.4-14.2-97.171,0c-104.112,22.147-131.875,15.333-173.519,5.111-55.527-13.629-83.29-10.222-124.935,6.815s-124.934,34.072-180.461-17.036c-20.85-19.2-67.759-19.5-109.4-16.1v83.729" transform="translate(-970.191 -675.289)" fill="url(#linear-gradient)"/>
            <g transform="matrix(1, 0, 0, 1, -61.51, -88.08)" filter="url(#Path_11473)">
              <path id="Path_11473-2" data-name="Path 11473" d="M1643.447,698.693s-30.4-14.2-97.171,0c-104.112,22.147-131.875,15.333-173.519,5.111-55.527-13.629-83.29-10.222-124.935,6.815s-124.934,34.072-180.461-17.036c-20.85-19.2-55.526-20.443-97.171-17.036" transform="translate(-903.39 -586.76)" fill="none" stroke="#0cb18b" stroke-linecap="round" stroke-linejoin="round" stroke-width="2"/>
            </g>
          </g>
          <g id="Hover" transform="translate(309.498 5.084)">
            <g id="Chart_Hover" data-name="Chart Hover" transform="translate(6.502)">
              <line id="Line_15" data-name="Line 15" y2="79.036" fill="none" stroke="#0cb18b" stroke-linecap="round" stroke-width="2" stroke-dasharray="0 6"/>
            </g>
          </g>
        </g>
        <g id="Ellipse_62" data-name="Ellipse 62" transform="translate(59 0.846)" fill="#1b5173" stroke="#fff" stroke-width="2">
          <circle cx="7" cy="7" r="7" stroke="none"/>
          <circle cx="7" cy="7" r="6" fill="none"/>
        </g>
        <g id="Ellipse_75" data-name="Ellipse 75" transform="translate(309 22.846)" fill="#1b5173" stroke="#fff" stroke-width="2">
          <circle cx="7" cy="7" r="7" stroke="none"/>
          <circle cx="7" cy="7" r="6" fill="none"/>
        </g>
        <g id="Ellipse_76" data-name="Ellipse 76" transform="translate(568 26.846)" fill="#1b5173" stroke="#fff" stroke-width="2">
          <circle cx="7" cy="7" r="7" stroke="none"/>
          <circle cx="7" cy="7" r="6" fill="none"/>
        </g>
        <g id="Group_555" data-name="Group 555" transform="translate(327 11.846)">
          <rect id="Rectangle_381" data-name="Rectangle 381" width="40" height="29" rx="10" fill="#0c7572"/>
          <text id="_38k" data-name="38k" transform="translate(8 19)" fill="#fff" font-size="13" font-family="SofiaProBlack, Sofia Pro" letter-spacing="0.022em"><tspan x="0" y="0">38k</tspan></text>
        </g>
      </g>
      <text id="_10" data-name="10" transform="translate(106 620)" fill="#c9c9c9" font-size="12" font-family="SofiaProMedium, Sofia Pro"><tspan x="0" y="0">10</tspan></text>
      <text id="_20" data-name="20" transform="translate(106 602)" fill="#c9c9c9" font-size="12" font-family="SofiaProMedium, Sofia Pro"><tspan x="0" y="0">20</tspan></text>
      <text id="_30" data-name="30" transform="translate(106 584)" fill="#c9c9c9" font-size="12" font-family="SofiaProMedium, Sofia Pro"><tspan x="0" y="0">30</tspan></text>
      <text id="_40" data-name="40" transform="translate(106 566)" fill="#c9c9c9" font-size="12" font-family="SofiaProMedium, Sofia Pro"><tspan x="0" y="0">40</tspan></text>
      <text id="_50" data-name="50" transform="translate(106 548)" fill="#c9c9c9" font-size="12" font-family="SofiaProMedium, Sofia Pro"><tspan x="0" y="0">50</tspan></text>
    </g>
    <path id="Path_11498" data-name="Path 11498" d="M2173.954,500h28.205" transform="translate(-1431.897 2)" fill="none" stroke="#0cb18b" stroke-linecap="round" stroke-width="2"/>
  </g>
</svg>
