<svg xmlns="http://www.w3.org/2000/svg" width="24" height="24" viewBox="0 0 24 24">
  <g id="Group_3299" data-name="Group 3299" transform="translate(-112 -112)">
    <circle id="Ellipse_95" data-name="Ellipse 95" cx="12" cy="12" r="12" transform="translate(112 112)" fill="rgba(216,173,2,0.4)"/>
    <path id="loading-svgrepo-com" d="M7.943,11.554A1.444,1.444,0,1,1,6.5,13,1.444,1.444,0,0,1,7.943,11.554ZM3.424,9.387a1.805,1.805,0,1,1-1.805,1.805A1.805,1.805,0,0,1,3.424,9.387Zm8.361.361a1.444,1.444,0,1,1-1.444,1.444A1.444,1.444,0,0,1,11.784,9.748Zm1.575-3.019a1.083,1.083,0,1,1-1.083,1.083A1.083,1.083,0,0,1,13.359,6.729ZM1.805,4.333A1.805,1.805,0,1,1,0,6.138,1.805,1.805,0,0,1,1.805,4.333ZM12.843,3.76a.722.722,0,1,1-.722.722A.722.722,0,0,1,12.843,3.76ZM5.777,0A2.166,2.166,0,1,1,3.611,2.166,2.166,2.166,0,0,1,5.777,0Zm5.416,2.166a.361.361,0,1,1-.361.361A.361.361,0,0,1,11.193,2.166Z" transform="translate(116.779 116.779)" fill="#fff" fill-rule="evenodd"/>
  </g>
</svg>
